<svg width="249" height="48" viewBox="0 0 249 48" fill="none" xmlns="http://www.w3.org/2000/svg">
<path d="M27.4021 21.3332L28.152 21.1741C27.0302 28.7969 25.9287 38.4479 26.0318 41.4932C26.0844 43.0755 27.196 44.2141 28.6795 44.2141C29.1476 44.2104 29.6088 44.0959 30.0275 43.8793C36.7437 40.4865 40.8991 39.3939 47.785 37.5834C49.4018 37.1648 49.8263 35.7479 49.6949 34.67C49.5433 33.4141 48.6015 32.1353 47.0978 32.1353C46.8571 32.1361 46.6176 32.1678 46.3843 32.2295C40.4908 33.7783 36.5416 34.8814 31.6404 37.0434C31.7475 35.8546 31.887 34.4816 32.0587 32.96C33.0107 32.556 33.8939 32.1772 34.7266 31.8172C39.3145 29.8455 42.3441 28.5416 47.787 27.0032C49.4039 26.5448 49.8081 25.1195 49.6727 24.0248C49.511 22.7941 48.5833 21.5467 47.122 21.5467C46.8658 21.5475 46.6109 21.5842 46.3641 21.6555C40.8526 23.2211 37.8007 24.5355 33.1764 26.526L32.8268 26.6746C33.231 23.6962 33.6352 20.833 34.0051 18.5935C37.8917 16.8353 41.4832 15.9228 47.1584 14.7591C48.4822 14.487 49.2523 13.4174 49.1209 12.0381C48.9976 10.7279 47.9952 9.33603 46.3864 9.33603C46.1921 9.33672 45.9987 9.35706 45.8083 9.39673C41.3336 10.3156 37.8674 11.1444 34.4497 12.4379C34.3606 12.2868 34.2555 12.1464 34.1364 12.0193C33.8691 11.7452 33.5519 11.5287 33.2033 11.3821C32.8547 11.2355 32.4816 11.1619 32.1052 11.1653C31.1169 11.1653 29.9346 11.6928 29.5829 13.1704C29.5465 13.3211 29.4798 13.5681 29.401 13.857V13.8863C29.2636 14.3886 29.0938 15.0081 28.9968 15.4707C28.3056 15.68 25.7893 16.1384 23.3518 16.5737L23.2306 16.5967C20.3707 17.1053 17.1329 17.683 15.0653 18.1707C15.1259 16.5381 15.1846 15.1002 15.2432 13.7753C15.2775 12.9821 15.2957 12.1616 15.3139 11.3642V10.9037C17.6948 10.5395 20.0615 10.1607 22.9072 9.7044L22.9779 9.69184C26.0823 9.1937 29.6011 8.62859 33.0208 8.12417C33.3203 8.07429 33.6059 7.95865 33.8587 7.78501C34.1114 7.61138 34.3254 7.38374 34.4861 7.11742C34.6933 6.78936 34.8335 6.42099 34.8986 6.03485C34.9637 5.64871 34.9518 5.25288 34.864 4.87161C34.5488 3.68068 33.5928 2.97324 32.3073 2.97324C32.1349 2.97349 31.9627 2.98609 31.792 3.01091C28.5582 3.49021 25.2658 4.01766 22.0907 4.52835L21.9472 4.55347C19.8452 4.89254 17.7797 5.22324 15.6817 5.55184C15.7898 4.79122 15.9464 4.03886 16.1506 3.29975C16.2696 2.92849 16.2993 2.5328 16.2373 2.14695C16.1754 1.76111 16.0235 1.39672 15.7949 1.08532C15.5348 0.745035 15.2031 0.470562 14.8253 0.282713C14.4475 0.0948655 14.0333 -0.00142717 13.6142 0.00113686C13.0695 -0.0159351 12.5354 0.159696 12.1001 0.49908C11.6647 0.838463 11.354 1.32134 11.2191 1.86811C10.8249 3.32181 10.5703 4.81231 10.4592 6.31789C7.53265 6.73649 4.92745 7.06928 2.49606 7.33719C1.01055 7.49835 0 8.55952 0 9.9744C0 11.2637 1.16213 12.7686 2.6052 12.6116C4.92745 12.3604 7.41543 12.0444 10.2126 11.653C10.1985 12.0716 10.1843 12.4902 10.1662 12.9088C10.0772 14.8616 9.99234 16.9316 9.90341 19.6358C8.93934 19.9518 8.06016 20.2637 7.21534 20.586C6.10171 21.0046 5.3054 22.4153 5.43879 23.7088C5.54995 24.7867 6.24723 25.5234 7.32246 25.6825C7.94175 25.7922 8.57554 25.7786 9.18996 25.6428C9.33144 25.6114 9.50121 25.5737 9.69726 25.5234L9.62652 27.6165C9.44462 33.0248 9.25666 38.6174 8.95753 44.1158C8.92865 44.4465 8.96675 44.7799 9.06942 45.0945C9.17209 45.4093 9.33706 45.6981 9.55376 45.943C9.79427 46.1933 10.0812 46.3905 10.3973 46.523C10.7134 46.6552 11.0521 46.7199 11.393 46.7132C12.6501 46.7132 13.9679 45.8425 14.0568 44.1765C14.3599 38.6321 14.5479 33.0186 14.7298 27.5914L14.847 24.1274C17.6564 23.3781 23.9137 22.0679 26.9292 21.4358L27.4021 21.3332Z" fill="#D7244F"/>
<path d="M143.977 31.4364C143.826 30.1806 142.884 28.8996 141.378 28.8996C141.138 28.9011 140.899 28.9335 140.667 28.9959C134.476 30.6222 130.018 31.8613 124.823 34.1301C124.904 32.958 125.026 31.585 125.189 30.0424C125.23 30.0278 125.268 30.0152 125.304 29.9985C126.897 29.3224 128.227 28.7427 129.106 28.345C132.429 26.8799 134.258 26.0741 139.157 24.6822C140.774 24.2217 141.178 22.7985 141.039 21.7017C140.881 20.471 139.953 19.2236 138.49 19.2236C138.235 19.2254 137.981 19.262 137.734 19.3324C132.762 20.7452 130.915 21.5615 127.564 23.0392C127.057 23.2631 126.525 23.4996 125.947 23.7508C126.351 20.7662 126.8 17.7124 127.231 15.1296C128.932 14.3887 130.78 13.8738 132.52 13.4175C134.893 12.8022 136.36 12.5427 138.062 12.2413H138.08C138.955 12.0864 140.044 11.8959 141.437 11.6134C142.761 11.3455 143.533 10.2822 143.403 8.89243C143.282 7.57801 142.278 6.1715 140.661 6.1715C140.47 6.17141 140.28 6.19033 140.093 6.22801C138.71 6.50638 137.362 6.73871 136.051 6.96475C133.423 7.41685 130.693 7.88359 128.081 8.71871C127.965 8.36379 127.772 8.04097 127.518 7.77475C126.979 7.2263 126.252 6.92082 125.496 6.92499C124.508 6.92499 123.326 7.45033 122.974 8.92592C122.843 9.47847 122.677 10.2864 122.485 11.3329C121.381 12.0473 120.345 12.8672 119.389 13.7817C118.58 14.5541 118.334 15.5755 118.714 16.5864C118.926 17.1261 119.282 17.5918 119.741 17.9288C120.2 18.2659 120.743 18.4602 121.305 18.4889C120.155 26.1306 119.061 35.3755 119.427 38.5066C119.613 40.0848 120.708 41.1878 122.095 41.1878C122.555 41.1836 123.008 41.0697 123.419 40.855C130.078 37.4894 135.115 36.1666 142.086 34.3352C143.686 33.9229 144.105 32.5143 143.977 31.4364Z" fill="#D7244F"/>
<path d="M71.4601 44.8213C71.7572 41.0392 72.2059 36.6313 72.6425 32.372V32.2778C72.9477 29.2889 73.263 26.208 73.5156 23.4159C73.7885 20.3705 74.0936 17.0803 74.4777 13.675C74.514 13.3631 74.5484 13.0471 74.5807 12.7331C74.7586 11.0943 74.9405 9.39892 75.3326 7.78938C75.4211 7.4505 75.4322 7.09492 75.3647 6.75085C75.2974 6.40677 75.1535 6.08372 74.9445 5.80729C74.6907 5.48501 74.3707 5.22535 74.0077 5.04721C73.645 4.86907 73.2482 4.77694 72.8466 4.77752C72.422 4.76974 72.0032 4.88123 71.635 5.10014C71.2667 5.31905 70.9625 5.63719 70.7548 6.02078C69.7442 7.83334 68.8489 9.69822 67.9778 11.5024C67.4301 12.6347 66.8096 13.9198 66.1871 15.1317C65.0391 17.3733 64.069 19.1608 63.1049 20.7536C62.8118 21.2434 62.5248 21.6996 62.2298 22.1434C61.7447 20.764 60.623 17.4005 59.9277 14.8492C59.4649 13.1622 58.9374 11.4857 58.426 9.86148C58.1876 9.10171 57.9491 8.33985 57.7187 7.59055C57.6964 7.38124 57.6661 7.1845 57.6297 6.98776L57.6196 6.95845C57.539 6.70915 57.4452 6.4646 57.3387 6.2259C56.9607 5.47031 56.1442 4.99938 55.2064 4.99938C54.7743 4.99763 54.3481 5.10313 53.9634 5.30706C53.689 5.45646 53.4469 5.66229 53.252 5.91194C53.1799 5.98476 53.1124 6.06237 53.0499 6.14427C52.8337 6.44602 52.6946 6.79955 52.6457 7.17194C52.4814 7.89347 52.3892 8.63063 52.3708 9.37171C52.3526 9.70869 52.3324 10.0561 52.296 10.3366C51.914 13.2668 51.6756 16.3833 51.5199 20.4522C51.2774 26.8882 51.0571 35.6161 50.9459 43.2264C50.933 43.5311 50.9801 43.8354 51.0842 44.1209C51.1885 44.4062 51.3477 44.6666 51.5523 44.8861C51.7956 45.1289 52.0828 45.3196 52.3973 45.4475C52.7118 45.5754 53.0475 45.6377 53.3854 45.6313C54.6122 45.6313 55.8673 44.8108 55.8916 43.2431C55.9482 39.325 56.0755 34.8041 56.1968 30.4317C56.2817 27.4261 56.3504 24.9438 56.3989 22.6373C56.415 21.9529 56.4332 21.2496 56.4595 20.5443C57.5469 23.6482 58.8404 25.9338 60.5138 27.7171C60.9829 28.1763 61.6087 28.4247 62.254 28.4078C62.7215 28.4174 63.1803 28.277 63.5677 28.0059C65.8576 26.3064 67.4078 23.5729 68.7983 20.875C68.7296 21.6061 68.6623 22.338 68.5962 23.0706C68.3537 25.7622 68.0465 28.7761 67.7494 31.6917L67.7353 31.8278C67.2845 36.2608 66.8177 40.8445 66.5024 44.8527C66.469 45.1476 66.4967 45.4462 66.5836 45.7292C66.6703 46.0122 66.8142 46.2726 67.0056 46.4936C67.233 46.7322 67.5055 46.9199 67.8058 47.0449C68.1061 47.1698 68.4283 47.2293 68.7519 47.2199C70.011 47.2199 71.3449 46.3952 71.4601 44.8213Z" fill="#D7244F"/>
<path d="M79.3424 42.0543C80.4035 38.6217 81.3817 35.1473 82.1194 32.4829C84.7772 31.0764 87.2066 29.8101 89.5389 28.6108C90.9981 33.6016 92.7531 38.4947 94.7938 43.262C95.1636 44.1201 96.0752 44.6727 97.118 44.6727C97.5956 44.6764 98.0659 44.5508 98.4823 44.3085C99.7172 43.5613 100.113 42.0585 99.4686 40.5682C97.6496 36.3822 96.0064 31.6582 94.4158 26.1452C95.7417 25.4859 96.9341 24.8894 98.0538 24.3494C99.1392 23.822 99.6566 22.7692 99.4039 21.6034C99.1513 20.4375 98.1023 19.2299 96.633 19.2299C96.2178 19.2324 95.8086 19.3304 95.4345 19.5166C94.6125 19.9171 93.7806 20.3252 92.9384 20.741C92.3119 18.3194 91.6894 15.7178 90.9173 12.3417C90.6647 11.2178 90.3817 10.075 90.0563 8.84429C89.929 8.36289 89.8158 7.86894 89.7127 7.33522L89.6885 7.20545C89.8461 6.82475 89.9144 6.41079 89.8878 5.99748C89.8611 5.58418 89.74 5.1833 89.5349 4.82778C89.2794 4.40725 88.9269 4.05924 88.5092 3.81513C88.0914 3.57104 87.6215 3.43855 87.1419 3.42964C86.6685 3.42464 86.2063 3.57805 85.8241 3.86708C85.1418 4.37169 84.6594 5.11528 84.4659 5.9601L84.373 5.93289L84.2638 6.44778C81.8486 13.2355 79.9164 20.2617 78.0489 27.0724L77.6104 28.6527L77.4224 28.7552C77.2639 28.8113 77.1105 28.8814 76.9636 28.9645C76.7898 29.0587 76.6241 29.1571 76.4704 29.2513C76.3168 29.3455 76.1713 29.4292 76.0177 29.5129L75.5508 29.762L75.569 29.808C75.1953 30.0989 74.9152 30.5 74.765 30.9585C74.6151 31.4171 74.6023 31.9119 74.7283 32.3782C74.918 33.1596 75.3924 33.8348 76.0521 34.262C75.369 36.6585 74.7808 38.6573 74.1947 40.541C74.0601 40.9215 74.0176 41.3303 74.0712 41.7318C74.1248 42.1332 74.2727 42.515 74.5019 42.8434C74.7741 43.2044 75.1236 43.4953 75.5226 43.6931C75.9217 43.8911 76.3595 43.9908 76.8019 43.9841C77.3721 43.9998 77.9311 43.8187 78.3911 43.4694C78.8509 43.1201 79.1856 42.6221 79.3424 42.0543ZM84.1203 25.2243C84.757 22.922 85.5897 19.9499 86.5133 16.8773L86.5578 17.0866C86.8569 18.4157 87.1924 19.9206 87.5683 21.4045C87.7199 22.0157 87.8796 22.6164 88.0352 23.2129C86.7963 23.8387 85.5149 24.4896 84.1203 25.2243Z" fill="#D7244F"/>
<path d="M115.658 34.1929C115.202 34.196 114.755 34.3191 114.358 34.5508C112.153 35.792 110.375 36.5831 108.59 37.1148C107.664 37.3919 106.706 37.539 105.742 37.5522L105.643 37.5375C105.51 36.7715 105.698 35.681 105.845 34.7936C106.108 33.2615 106.409 31.5243 106.654 29.7703C108.068 19.6903 108.82 11.5966 109.109 3.52592C109.132 3.17764 109.085 2.82833 108.971 2.49965C108.858 2.17094 108.681 1.86983 108.45 1.61498C108.195 1.35411 107.892 1.1485 107.56 1.01015C107.227 0.871792 106.871 0.80347 106.512 0.809167C105.19 0.809167 103.818 1.728 103.755 3.48406C103.384 13.9366 102.502 22.8864 100.984 31.6499C100.936 31.9324 100.879 32.2255 100.821 32.5415L100.801 32.6524C100.194 35.9301 99.4201 40.0094 102.553 42.1799C103.464 42.8078 104.574 43.1176 105.92 43.1176C107.143 43.082 108.359 42.9043 109.544 42.588C112.216 41.9496 114.722 40.6582 117.022 39.3543C118.109 38.7431 118.578 37.6506 118.279 36.4241C118.018 35.321 117.022 34.1929 115.658 34.1929Z" fill="#D7244F"/>
<path d="M207.652 35.9385H207.45C205.273 35.9385 204.099 37.7448 204.061 39.528C204.022 41.2422 205.035 43.1385 207.341 43.2431H207.521C209.708 43.2431 210.892 41.4389 210.93 39.6557C210.965 37.9394 209.954 36.0431 207.652 35.9385Z" fill="#D7244F"/>
<path d="M180.889 15.5964C180.153 10.1545 176.934 5.49543 172.485 3.42752C170.971 2.71784 169.33 2.34629 167.669 2.33706C164.554 2.33706 161.838 3.67659 160.025 6.1045C159.505 6.78402 159.056 7.51938 158.687 8.29799C158.467 8.74267 158.363 9.23947 158.386 9.73868C158.41 10.2379 158.559 10.7219 158.82 11.1424C159.213 11.7961 159.821 12.2802 160.532 12.505C160.401 16.6198 160.373 20.8771 160.445 25.1468C160.498 28.1441 160.605 31.6896 161.015 35.2708L161.084 35.8861C160.641 35.9385 160.211 35.9699 159.801 35.9803C158.002 36.0243 157.08 37.5124 157.098 38.9587C157.113 40.3108 157.953 41.7613 159.76 41.7613H159.831C160.694 41.7387 161.554 41.657 162.406 41.5164C162.537 41.7837 162.69 42.0392 162.863 42.2803C163.487 43.1468 164.364 43.6429 165.272 43.6429C165.753 43.6406 166.224 43.5039 166.636 43.2473C166.982 43.0246 167.28 42.731 167.513 42.3841C167.745 42.0375 167.906 41.6453 167.986 41.2317C168.086 40.7543 168.054 40.2572 167.893 39.798C170.86 38.3662 173.491 36.2855 175.606 33.6989C179.822 28.5543 181.748 21.9571 180.889 15.5964ZM166.286 8.27078C166.679 8.11539 167.099 8.04419 167.519 8.06148H167.833C168.476 8.08519 169.111 8.22251 169.71 8.46752C172.477 9.4345 174.702 12.5238 175.381 16.331C176.147 20.6343 174.64 25.938 171.541 29.8394C170.144 31.6005 168.428 33.061 166.488 34.1385C166.159 30.911 166.07 27.5957 166.022 24.4938C165.933 18.9808 166.022 13.5222 166.286 8.26869V8.27078Z" fill="#D7244F"/>
<path d="M200.475 26.9636C200.071 23.0936 199.635 19.0917 198.917 15.1966C198.42 12.5029 197.854 9.64801 196.872 6.93545C196.429 5.71103 195.958 4.54312 195.065 3.69964C194.418 3.07736 193.57 2.7286 192.688 2.72219C192.23 2.72228 191.777 2.82266 191.359 3.01672C190.941 3.21077 190.567 3.49414 190.263 3.84824C189.914 4.22802 189.676 4.70134 189.574 5.21446C189.472 5.72759 189.511 6.25999 189.687 6.75126C189.691 6.7683 189.697 6.78509 189.703 6.8015C189.663 6.88518 189.627 6.97114 189.596 7.05894C188.585 9.83219 187.69 12.6724 186.815 15.4185V15.4394C185.843 18.4931 184.959 21.2434 183.967 23.9685C182.609 24.4206 182.251 25.6785 182.36 26.6266C182.398 26.9343 182.483 27.2338 182.611 27.5141C182.152 28.6736 181.631 30.0257 181.226 31.3464C180.677 33.1464 180.042 35.8066 180.887 38.0985C181.356 39.3543 182.382 40.1496 183.567 40.1496C183.814 40.1494 184.06 40.1151 184.298 40.0471C184.682 39.9261 185.039 39.7258 185.346 39.4585C185.653 39.1915 185.905 38.8626 186.087 38.492C186.249 38.1768 186.346 37.8297 186.37 37.4735C186.394 37.1171 186.345 36.7596 186.227 36.4241C185.794 35.2541 186.334 33.6508 186.809 32.238L186.922 31.9052C187.296 30.7792 187.744 29.6657 188.177 28.5878L188.294 28.2927C190.202 27.8741 192.199 27.491 194.95 27.0117L195.087 28.3031C195.606 33.2238 196.146 38.3099 197.29 43.2222C197.407 43.8273 197.727 44.37 198.193 44.7547C198.659 45.1396 199.241 45.3418 199.837 45.3257C200.287 45.3228 200.732 45.2171 201.139 45.0163C201.546 44.8156 201.905 44.5247 202.191 44.1641C202.45 43.8264 202.626 43.4309 202.709 43.0091C202.791 42.5872 202.777 42.1512 202.668 41.7361C201.54 36.8971 200.999 31.8487 200.475 26.9636ZM194.331 21.8482C192.801 22.1141 191.534 22.3422 190.36 22.5661C190.956 20.7913 191.544 18.9536 192.096 17.2268L192.156 17.0364C192.421 16.2117 192.728 15.2468 193.05 14.2568C193.302 15.4436 193.547 16.7685 193.804 18.2796C193.866 18.6501 193.925 19.0227 193.979 19.3931C194.002 19.5438 194.026 19.6945 194.044 19.8452L194.115 20.3413C194.131 20.4648 194.145 20.5506 194.151 20.5966C194.214 21.011 194.275 21.4296 194.331 21.8482Z" fill="#D7244F"/>
<path d="M210.292 19.232C210.322 18.7317 210.352 18.2127 210.387 17.6538V17.5994C210.451 16.465 210.5 15.7952 210.536 15.2971V15.182C210.601 14.2987 210.641 13.765 210.704 11.7389C210.704 11.5443 210.716 11.3454 210.724 11.1466L210.736 10.8368C210.815 8.82754 210.896 6.74917 210.389 4.8215C210.241 4.1993 209.892 3.64817 209.4 3.25977C208.909 2.87134 208.303 2.66909 207.685 2.68661C207.24 2.68243 206.799 2.78226 206.397 2.97865C205.993 3.17506 205.639 3.463 205.358 3.82103C205.114 4.1503 204.95 4.5355 204.879 4.94417C204.809 5.35285 204.835 5.77305 204.954 6.1694C205.027 6.45939 205.077 6.75463 205.108 7.05266V7.23475C205.126 7.53824 205.134 7.83545 205.14 8.08661C205.178 9.4701 205.14 10.841 205.087 12.2392C205.019 14.2506 204.966 14.9434 204.885 15.9166V15.9438C204.839 16.5717 204.78 17.342 204.701 18.7359L204.637 19.8494C204.495 22.2438 204.394 23.9768 204.42 26.6873C204.42 26.8275 204.42 26.9803 204.42 27.1415V27.2106C204.42 29.3873 204.421 33.0292 207.098 33.4624C207.323 33.4982 207.547 33.5164 207.774 33.5168C208.697 33.5168 209.39 33.1799 209.867 32.5122C210.617 31.4322 210.411 29.8624 210.169 29.1048C210.118 28.9264 210.084 28.7435 210.065 28.5585C210.065 28.5375 210.065 28.4685 210.053 28.368V28.3178C210.053 28.2257 210.037 28.1315 210.033 28.0896C210.019 27.8259 210.011 27.5601 210.005 27.3006V27.242C209.991 26.6266 210.005 25.9861 210.005 25.4399C210.065 22.968 210.16 21.4003 210.292 19.232Z" fill="#D7244F"/>
<path d="M246.575 4.21033C246.193 4.20418 245.817 4.29665 245.479 4.47939C245.14 4.66213 244.851 4.92935 244.638 5.25684L244.547 5.22964L244.345 5.85754C243.296 9.00126 242.049 12.1575 240.73 15.4896L240.715 15.5252C240.158 16.9359 239.693 18.1164 239.24 19.2927C238.052 17.5261 236.815 15.6382 235.491 13.5327C235.028 12.8001 234.786 12.4631 234.587 12.191C234.234 11.7031 233.912 11.1913 233.625 10.6589C233.221 9.95359 232.866 9.29219 232.536 8.63917C232.415 8.39638 232.29 8.13475 232.158 7.84382L232.106 7.71196C232.071 7.61987 232.041 7.5194 232.013 7.42312C231.879 6.93202 231.59 6.50104 231.194 6.19795C230.798 5.89484 230.315 5.73682 229.822 5.7487C229.444 5.74584 229.07 5.83328 228.728 6.00424C228.389 6.1752 228.092 6.42511 227.859 6.73452C227.653 7.02683 227.518 7.36758 227.469 7.72651C227.419 8.08542 227.457 8.45141 227.576 8.79196V8.81708C228.803 11.7285 229.409 12.6871 230.739 14.7822C230.927 15.0773 231.123 15.3913 231.346 15.7345L231.358 15.7513C233.419 19.0331 235.345 21.9466 237.247 24.655C235.129 30.752 234.014 35.6957 233.739 40.2124C233.71 40.5153 233.745 40.8207 233.838 41.1091C233.931 41.3975 234.082 41.6623 234.28 41.8868C234.497 42.1152 234.755 42.2954 235.042 42.4164C235.327 42.5374 235.634 42.5964 235.944 42.5901C237.073 42.5901 238.266 41.8052 238.357 40.3045C238.83 32.5415 242.017 24.6068 245.095 16.915L245.119 16.8522C246.146 14.2882 247.118 11.8645 248 9.43243C248.149 9.21682 248.264 8.97807 248.343 8.72498C248.424 8.46754 248.495 8.20591 248.569 7.92126C248.632 7.68894 248.697 7.44824 248.772 7.20964C248.891 6.879 248.931 6.52285 248.887 6.17275C248.84 5.82263 248.713 5.48934 248.515 5.20243C248.289 4.89281 247.993 4.64204 247.658 4.46987C247.32 4.29772 246.951 4.20887 246.575 4.21033Z" fill="#D7244F"/>
<path d="M228.73 33.4666C228.27 33.4706 227.819 33.5943 227.417 33.8266C225.396 34.9694 223.758 35.6936 222.123 36.1813C221.323 36.419 220.498 36.5511 219.666 36.5747C219.607 35.9301 219.755 35.0573 219.868 34.3394L219.882 34.2661C220.127 32.8513 220.403 31.2501 220.628 29.6489C221.891 20.6196 222.649 12.4443 222.918 4.65615C222.94 4.30117 222.889 3.94542 222.774 3.61068C222.659 3.27597 222.477 2.96934 222.243 2.70964C221.984 2.44497 221.679 2.23642 221.341 2.09623C221.004 1.95606 220.644 1.88708 220.28 1.89335C218.944 1.89335 217.56 2.82266 217.497 4.60173C217.214 12.4945 216.369 21.2392 214.914 31.3338C214.862 31.7127 214.791 32.1166 214.712 32.6022C214.199 35.5764 213.558 39.281 216.474 41.2987C217.358 41.912 218.419 42.2092 219.72 42.2092C220.868 42.1759 222.01 42.0089 223.124 41.711C225.62 41.1145 227.956 39.9089 230.111 38.6992C231.214 38.0713 231.691 36.964 231.388 35.725C231.115 34.6031 230.113 33.4666 228.73 33.4666Z" fill="#D7244F"/>
</svg>

